HIERARCHY
ROOT Hips
{
	OFFSET 0.000000 0.000000 0.000000
	CHANNELS 6 Xposition Yposition Zposition Zrotation Yrotation Xrotation 
	JOINT LHipJoint
	{
		OFFSET 0.000000 0.000000 0.000000
		CHANNELS 3 Zrotation Yrotation Xrotation
		JOINT LeftUpLeg
		{
			OFFSET 1.363060 -1.794630 0.839290
			CHANNELS 3 Zrotation Yrotation Xrotation
			JOINT LeftLeg
			{
				OFFSET 2.448110 -6.726130 0.000000
				CHANNELS 3 Zrotation Yrotation Xrotation
				JOINT LeftFoot
				{
					OFFSET 2.562200 -7.039590 0.000000
					CHANNELS 3 Zrotation Yrotation Xrotation
					JOINT LeftToeBase
					{
						OFFSET 0.157640 -0.433110 2.322550
						CHANNELS 3 Zrotation Yrotation Xrotation
						End Site
						{
							OFFSET 0.000000 0.000000 0.000000
						}
					}
				}
			}
		}
	}
	JOINT RHipJoint
	{
		OFFSET 0.000000 0.000000 0.000000
		CHANNELS 3 Zrotation Yrotation Xrotation
		JOINT RightUpLeg
		{
			OFFSET -1.305520 -1.794630 0.839290
			CHANNELS 3 Zrotation Yrotation Xrotation
			JOINT RightLeg
			{
				OFFSET -2.542530 -6.985550 0.000000
				CHANNELS 3 Zrotation Yrotation Xrotation
				JOINT RightFoot
				{
					OFFSET -2.568260 -7.056230 0.000000
					CHANNELS 3 Zrotation Yrotation Xrotation
					JOINT RightToeBase
					{
						OFFSET -0.164730 -0.452590 2.363150
						CHANNELS 3 Zrotation Yrotation Xrotation
						End Site
						{
							OFFSET 0.000000 0.000000 0.000000
						}
					}
				}
			}
		}
	}
}
MOTION
Frames: 13
Frame Time: 0.008333
1.581032 16.640821 1.966919 174.972600 -83.851047 -175.958622 -10.364757 2.422964 0.320890 -13.431795 5.751579 -3.593070 -1.962390 0.923339 29.557606 2.688782 11.690571 -23.522243 -3.816500 0.000000 -23.922500 10.267620 -0.627415 -1.050958 4.964012 -10.072501 -30.945122 0.333185 -3.786794 56.316128 -2.858265 -12.898823 -18.059182 2.155400 0.000000 -8.152400
1.317728 16.653596 1.935860 176.578616 -84.414358 -177.471489 -10.397638 2.514732 0.380034 -12.943602 5.911526 -2.065130 -1.951325 0.830311 28.167177 2.618762 11.384443 -23.081703 -3.637900 -0.000000 -25.827900 10.045949 -0.501153 -0.891467 5.919756 -10.207356 -32.343248 0.564399 -3.597106 53.655292 -2.961976 -12.997932 -18.072628 2.149400 0.000000 -8.606200
1.052430 16.664085 1.902158 178.265184 -85.003606 -179.057924 -10.430631 2.620401 0.442846 -12.435645 6.115162 -0.571734 -1.940175 0.741574 26.767802 2.530621 11.008252 -22.540576 -3.423000 0.000000 -27.961100 9.821209 -0.395748 -0.726253 6.864487 -10.397057 -33.603424 0.811941 -3.385699 50.721242 -3.039908 -12.935171 -17.988667 2.092600 0.000000 -9.344600
0.785256 16.672043 1.865795 -179.945479 -85.623841 179.248442 -10.461789 2.740243 0.504550 -11.908314 6.353337 0.904021 -1.929065 0.660482 25.372496 2.426031 10.571055 -21.899943 -3.177600 0.000000 -30.217000 9.599286 -0.308847 -0.562052 7.791009 -10.654787 -34.707441 1.076428 -3.150036 47.532225 -3.086189 -12.700614 -17.811983 1.987600 -0.000000 -10.432600
0.516391 16.677440 1.826908 -177.932371 -86.280631 177.316367 -10.490190 2.872881 0.560108 -11.357526 6.614423 2.378122 -1.916833 0.590176 23.992710 2.306819 10.084524 -21.153063 -2.906499 -0.000000 -32.529800 9.385253 -0.237391 -0.404686 8.695002 -10.988546 -35.640072 1.357629 -2.886640 44.106421 -3.096898 -12.302231 -17.537543 1.838900 -0.000000 -11.981900
0.246077 16.680346 1.785728 -175.393637 -86.979091 174.833657 -10.515987 3.015311 0.605174 -10.776657 6.885612 3.863894 -1.901157 0.533193 22.640443 2.175294 9.562051 -20.291871 -2.615000 0.000000 -34.858200 9.182986 -0.178505 -0.257501 9.572811 -11.399483 -36.388482 1.653737 -2.591405 40.462524 -3.070326 -11.764912 -17.152226 1.652500 0.000000 -14.132300
-0.025568 16.680956 1.742579 -171.542955 -87.724548 171.007710 -10.541253 3.162775 0.636573 -10.157641 7.152939 5.371024 -1.878158 0.491010 21.327987 2.034182 9.017713 -19.307790 -2.308800 0.000000 -37.154900 8.993386 -0.130200 -0.120740 10.418263 -11.879940 -36.941796 1.961068 -2.260276 36.622652 -3.008186 -11.129548 -16.647498 1.437700 0.000000 -16.919800
-0.298436 16.679625 1.697734 -163.895699 -88.527333 163.350031 -10.575034 3.308213 0.651606 -9.493038 7.403036 6.901721 -1.841123 0.463886 20.067877 1.886192 8.465900 -18.185955 -1.992500 -0.000000 -39.461900 8.807064 -0.092499 0.008356 11.217558 -12.412350 -37.291256 2.272369 -1.889838 32.614878 -2.915938 -10.451921 -16.017637 1.205200 0.000000 -20.316200
-0.572489 16.676722 1.651482 -140.673130 -89.390901 140.083962 -10.671798 3.463428 0.649339 -8.802495 7.633211 8.440709 -1.786778 0.455491 18.866297 1.734685 7.925933 -16.908767 -1.671000 0.000000 -41.870200 8.562089 -0.061782 0.131636 11.920317 -12.968469 -37.430170 2.563708 -1.466524 28.483760 -2.800920 -9.794176 -15.256042 0.964101 -0.000000 -24.295300
-0.847832 16.672642 1.603986 -66.724182 -89.780708 66.066362 -10.815090 3.781471 0.625736 -8.182330 7.914913 9.958411 -1.816073 0.520970 17.690786 1.587723 7.444470 -15.482549 -1.350100 0.000001 -44.427500 8.355871 0.079624 0.206462 12.511431 -13.446753 -37.345853 2.761910 -0.937605 24.293832 -2.674015 -9.201046 -14.393708 0.731201 0.000000 -28.375700
-1.120071 16.669637 1.556977 -23.889561 -88.445890 22.926758 -10.744884 3.953590 0.705889 -7.169290 7.287780 11.674993 -1.773005 0.617712 16.897002 1.445761 6.948038 -14.038260 -1.048000 -0.000000 -47.136399 8.439872 0.225571 -0.006640 13.411116 -15.198399 -36.932681 3.086632 -0.472532 20.065163 -2.470702 -8.405929 -13.509912 0.525600 -0.000000 -32.395000
-1.398618 16.664408 1.506939 -18.725019 -87.640910 17.604975 -10.738623 4.095826 0.645392 -6.339650 7.396758 13.244504 -1.695800 0.676936 15.952540 1.309047 6.521056 -12.284413 -0.742600 -0.000001 -50.235300 8.409430 0.309252 0.105239 13.876719 -15.554945 -36.437727 3.269334 0.012638 16.000772 -2.388854 -8.203764 -12.641461 0.340200 -0.000001 -35.677300
-1.679115 16.659033 1.455681 -15.787852 -86.848899 14.482563 -10.736602 4.235527 0.572408 -5.521431 7.444332 14.793466 -1.606874 0.758181 15.110692 1.186848 6.168858 -10.364164 -0.449700 0.000000 -53.676700 8.395597 0.407014 0.220401 14.159775 -15.764340 -35.746018 3.377904 0.491597 12.173351 -2.351798 -8.258142 -11.862061 0.183000 -0.000000 -38.103400
